<svg width="86" height="65" viewBox="0 0 86 65" fill="none" xmlns="http://www.w3.org/2000/svg">
<path d="M72.5032 5.46555C66.9186 2.90878 61.023 1.09492 54.9671 0.0703125C54.1384 1.55175 53.3885 3.07595 52.7207 4.63654C46.2699 3.66447 39.7099 3.66447 33.2591 4.63654C32.5909 3.07611 31.8411 1.55193 31.0128 0.0703125C24.9529 1.10358 19.0534 2.92174 13.4632 5.47892C2.3652 21.8986 -0.643292 37.9105 0.860955 53.6951C7.36022 58.497 14.6348 62.149 22.3683 64.4922C24.1097 62.1501 25.6506 59.6655 26.9747 57.0646C24.4598 56.1253 22.0325 54.9665 19.7209 53.6015C20.3293 53.1602 20.9243 52.7056 21.4992 52.2644C28.2255 55.4276 35.567 57.0677 42.9999 57.0677C50.4329 57.0677 57.7743 55.4276 64.5006 52.2644C65.0823 52.739 65.6773 53.1936 66.279 53.6015C63.9629 54.9687 61.5311 56.1297 59.0118 57.0713C60.3342 59.6709 61.8752 62.1535 63.6181 64.4922C71.3583 62.1584 78.6385 58.5081 85.1389 53.7017C86.9039 35.3967 82.1237 19.5319 72.5032 5.46555ZM28.8801 43.9877C24.6882 43.9877 21.2251 40.1836 21.2251 35.5037C21.2251 30.8238 24.5679 26.9863 28.8667 26.9863C33.1655 26.9863 36.6019 30.8238 36.5283 35.5037C36.4548 40.1836 33.1521 43.9877 28.8801 43.9877ZM57.1198 43.9877C52.9213 43.9877 49.4715 40.1836 49.4715 35.5037C49.4715 30.8238 52.8143 26.9863 57.1198 26.9863C61.4253 26.9863 64.8349 30.8238 64.7614 35.5037C64.6878 40.1836 61.3919 43.9877 57.1198 43.9877Z" fill="white"/>
</svg>
