<svg width="39" height="38" viewBox="0 0 39 38" fill="none" xmlns="http://www.w3.org/2000/svg">
<path d="M19.4916 3.36432C24.5381 3.36432 25.1773 3.36433 27.1791 3.48208C28.3859 3.4927 29.5814 3.71474 30.7116 4.13812C31.5313 4.44124 32.2728 4.92405 32.8816 5.55113C33.5108 6.16803 33.9986 6.91414 34.3114 7.73795C34.7264 8.8704 34.9482 10.0645 34.9675 11.2705C34.9675 13.2722 35.0684 13.8778 35.0684 18.9411C35.0684 24.0044 35.0684 24.6268 34.9675 26.6286C34.9482 27.8345 34.7264 29.0287 34.3114 30.1611C33.9865 30.9737 33.4999 31.7118 32.8811 32.3306C32.2623 32.9494 31.5242 33.4361 30.7116 33.761C29.5791 34.176 28.385 34.3977 27.1791 34.417C25.1773 34.417 24.5717 34.5179 19.4916 34.5179C14.4115 34.5179 13.8227 34.5179 11.8209 34.417C10.615 34.3977 9.42085 34.176 8.2884 33.761C7.4758 33.4361 6.73771 32.9494 6.1189 32.3306C5.50008 31.7118 5.01346 30.9737 4.68857 30.1611C4.27356 29.0287 4.05179 27.8345 4.03253 26.6286C3.94843 24.6268 3.93161 24.0213 3.93161 18.9411C3.93161 13.861 3.9316 13.2722 4.03253 11.2705C4.05179 10.0645 4.27356 8.8704 4.68857 7.73795C5.00135 6.91414 5.4892 6.16803 6.11842 5.55113C6.7272 4.92405 7.46866 4.44124 8.2884 4.13812C9.41854 3.71474 10.6141 3.4927 11.8209 3.48208C13.8227 3.48208 14.4283 3.36432 19.4916 3.36432ZM19.4916 0C14.3442 0 13.6881 1.232e-05 11.6695 0.117764C10.0944 0.143017 8.53531 0.438883 7.06043 0.992468C5.79953 1.4881 4.65433 2.23835 3.69634 3.19635C2.73834 4.15435 1.98812 5.29954 1.49248 6.56044C0.937272 8.03487 0.641326 9.59422 0.617751 11.1695C0.516821 13.1881 0.5 13.8442 0.5 18.9916C0.5 24.139 0.499999 24.8119 0.617751 26.8304C0.643004 28.4056 0.938896 29.9647 1.49248 31.4396C1.98812 32.7005 2.73834 33.8457 3.69634 34.8037C4.65433 35.7617 5.79953 36.5119 7.06043 37.0075C8.53758 37.553 10.0953 37.8486 11.6695 37.8823C13.6881 37.9832 14.3442 38 19.4916 38C24.639 38 25.3119 38 27.3305 37.8823C28.9047 37.8486 30.4624 37.553 31.9396 37.0075C33.2005 36.5119 34.3457 35.7617 35.3036 34.8037C36.2616 33.8457 37.0119 32.7005 37.5075 31.4396C38.0611 29.9647 38.357 28.4056 38.3822 26.8304C38.4832 24.8119 38.5 24.1558 38.5 18.9916C38.5 13.8274 38.5 13.1881 38.3822 11.1695C38.3587 9.59422 38.0627 8.03487 37.5075 6.56044C37.0119 5.29954 36.2616 4.15435 35.3036 3.19635C34.3457 2.23835 33.2005 1.4881 31.9396 0.992468C30.4647 0.438883 28.9056 0.143017 27.3305 0.117764C25.3119 0.0168339 24.6558 0 19.4916 0Z" fill="white"/>
<path d="M19.4919 9.18457C17.5622 9.18457 15.6759 9.75678 14.0714 10.8288C12.467 11.9009 11.2165 13.4247 10.478 15.2074C9.73958 16.9902 9.54637 18.9519 9.92282 20.8445C10.2993 22.7371 11.2285 24.4755 12.593 25.84C13.9574 27.2045 15.6959 28.1337 17.5885 28.5102C19.4811 28.8866 21.4428 28.6934 23.2255 27.9549C25.0083 27.2165 26.5321 25.966 27.6041 24.3615C28.6762 22.7571 29.2484 20.8708 29.2484 18.9411C29.2484 16.3535 28.2205 13.8719 26.3908 12.0422C24.5611 10.2125 22.0795 9.18457 19.4919 9.18457ZM19.4919 25.2828C18.2376 25.2828 17.0115 24.9109 15.9686 24.214C14.9257 23.5172 14.1129 22.5268 13.6329 21.368C13.1529 20.2092 13.0273 18.934 13.272 17.7039C13.5167 16.4737 14.1207 15.3437 15.0076 14.4568C15.8945 13.5699 17.0245 12.9659 18.2547 12.7212C19.4848 12.4765 20.76 12.6021 21.9188 13.0821C23.0776 13.5621 24.068 14.3749 24.7649 15.4178C25.4617 16.4607 25.8336 17.6868 25.8336 18.9411C25.8336 19.7739 25.6696 20.5985 25.3509 21.368C25.0322 22.1374 24.5651 22.8365 23.9762 23.4254C23.3873 24.0143 22.6882 24.4814 21.9188 24.8001C21.1493 25.1188 20.3247 25.2828 19.4919 25.2828Z" fill="white"/>
<path d="M31.8389 8.81484C31.8389 9.26874 31.7038 9.71236 31.4509 10.0893C31.198 10.4662 30.8387 10.7593 30.4187 10.9315C29.9987 11.1036 29.537 11.1469 29.0923 11.0558C28.6477 10.9648 28.2401 10.7435 27.9216 10.4202C27.603 10.0969 27.3878 9.68615 27.3034 9.24018C27.2189 8.79421 27.2691 8.3332 27.4474 7.9158C27.6257 7.49841 27.9242 7.14347 28.3048 6.89618C28.6854 6.64889 29.131 6.52043 29.5848 6.5271C30.1916 6.5271 30.7734 6.76812 31.2025 7.19716C31.6315 7.62619 31.8726 8.2081 31.8726 8.81484" fill="white"/>
</svg>
